<svg width="25" height="25" viewBox="0 0 25 25" fill="none" xmlns="http://www.w3.org/2000/svg">
<circle cx="12.5" cy="12.5" r="12.5" fill="#084EB8"/>
<path d="M9.35 15.2063C9.62848 15.2063 9.89555 15.0882 10.0925 14.8781C10.2894 14.668 10.4 14.3831 10.4 14.0859C10.4034 14.0487 10.4034 14.0112 10.4 13.9739L12.353 11.8901H12.675L13.802 13.0926V13.1523C13.802 13.4495 13.9126 13.7344 14.1095 13.9445C14.3065 14.1546 14.5735 14.2727 14.852 14.2727C15.1305 14.2727 15.3975 14.1546 15.5945 13.9445C15.7914 13.7344 15.902 13.4495 15.902 13.1523V13.0926L18.45 10.3516C18.6577 10.3516 18.8607 10.2859 19.0333 10.1628C19.206 10.0397 19.3406 9.86469 19.4201 9.65998C19.4995 9.45527 19.5203 9.23001 19.4798 9.01269C19.4393 8.79537 19.3393 8.59575 19.1925 8.43907C19.0456 8.28239 18.8585 8.17569 18.6548 8.13246C18.4512 8.08924 18.24 8.11142 18.0482 8.19622C17.8563 8.28101 17.6923 8.4246 17.577 8.60884C17.4616 8.79307 17.4 9.00967 17.4 9.23125C17.3966 9.2685 17.3966 9.30603 17.4 9.34328L14.873 12.0395H14.761L13.55 10.725C13.55 10.4279 13.4394 10.1429 13.2425 9.93282C13.0455 9.72272 12.7785 9.60469 12.5 9.60469C12.2215 9.60469 11.9545 9.72272 11.7575 9.93282C11.5606 10.1429 11.45 10.4279 11.45 10.725L9.35 12.9656C9.07152 12.9656 8.80445 13.0837 8.60754 13.2938C8.41062 13.5039 8.3 13.7888 8.3 14.0859C8.3 14.3831 8.41062 14.668 8.60754 14.8781C8.80445 15.0882 9.07152 15.2063 9.35 15.2063ZM18.8 18.1938H6.9V5.49688C6.9 5.29879 6.82625 5.10882 6.69497 4.96875C6.5637 4.82869 6.38565 4.75 6.2 4.75C6.01435 4.75 5.8363 4.82869 5.70503 4.96875C5.57375 5.10882 5.5 5.29879 5.5 5.49688V18.9406C5.5 19.1387 5.57375 19.3287 5.70503 19.4687C5.8363 19.6088 6.01435 19.6875 6.2 19.6875H18.8C18.9857 19.6875 19.1637 19.6088 19.295 19.4687C19.4263 19.3287 19.5 19.1387 19.5 18.9406C19.5 18.7425 19.4263 18.5526 19.295 18.4125C19.1637 18.2724 18.9857 18.1938 18.8 18.1938Z" fill="white"/>
</svg>
