<svg width="17" height="24" viewBox="0 0 17 24" fill="none" xmlns="http://www.w3.org/2000/svg">
<path d="M11.0856 14.6855C10.3733 15.3979 9.4075 15.7987 8.40009 15.8C7.39269 15.7987 6.42692 15.3979 5.71455 14.6855C5.00206 13.9731 4.60127 13.007 4.6001 11.9994V4.8C4.6001 3.79218 5.00045 2.82563 5.71309 2.11299C6.42573 1.40036 7.39227 1 8.4001 1C9.40792 1 10.3745 1.40036 11.0871 2.11299C11.7997 2.82563 12.2001 3.79218 12.2001 4.8L12.2001 11.999C12.2001 11.9992 12.2001 11.9995 12.2001 11.9998C12.1988 13.0073 11.7981 13.9731 11.0856 14.6855Z" fill="white" stroke="#FF6C37" stroke-width="2"/>
<path d="M8.2 20.3039V19.4259L7.32935 19.3123L7.29344 19.3076C5.54602 19.0421 3.95104 18.1604 2.79679 16.8215C1.64063 15.4805 1.0032 13.7696 1 11.999V9.5999C1 9.54686 1.02107 9.49599 1.05858 9.45848C1.09609 9.42097 1.14696 9.3999 1.2 9.3999C1.25304 9.3999 1.30391 9.42097 1.34142 9.45848C1.37893 9.49599 1.4 9.54686 1.4 9.5999V11.9999C1.4 13.8564 2.1375 15.6369 3.45025 16.9497C4.76301 18.2624 6.54348 18.9999 8.4 18.9999C10.2565 18.9999 12.037 18.2624 13.3497 16.9497C14.6625 15.6369 15.4 13.8564 15.4 11.9999V9.5999C15.4 9.54686 15.4211 9.49599 15.4586 9.45848C15.4961 9.42097 15.547 9.3999 15.6 9.3999C15.653 9.3999 15.7039 9.42097 15.7414 9.45848C15.7789 9.49599 15.8 9.54686 15.8 9.5999L15.8 11.9992C15.8 11.9994 15.8 11.9996 15.8 11.9998C15.8 11.9998 15.8 11.9999 15.8 11.9999C15.7935 15.7043 13.0636 18.7772 9.45272 19.3148L8.6 19.4418V20.3039V21.5999V22.5999H9.6H13.2C13.2263 22.5999 13.2523 22.6051 13.2765 22.6151C13.3008 22.6252 13.3229 22.6399 13.3414 22.6585C13.36 22.6771 13.3747 22.6991 13.3848 22.7234C13.3948 22.7476 13.4 22.7736 13.4 22.7999C13.4 22.8262 13.3948 22.8522 13.3848 22.8764C13.3747 22.9007 13.36 22.9228 13.3414 22.9413C13.3229 22.9599 13.3008 22.9746 13.2765 22.9847C13.2523 22.9947 13.2263 22.9999 13.2 22.9999H3.6C3.57374 22.9999 3.54773 22.9947 3.52346 22.9847C3.49919 22.9746 3.47715 22.9599 3.45858 22.9413C3.44001 22.9228 3.42528 22.9007 3.41522 22.8764C3.40517 22.8522 3.4 22.8262 3.4 22.7999C3.4 22.7736 3.40517 22.7476 3.41522 22.7234C3.42528 22.6991 3.44001 22.6771 3.45858 22.6585C3.47715 22.6399 3.49919 22.6252 3.52346 22.6151C3.54773 22.6051 3.57374 22.5999 3.6 22.5999H7.2H8.2V21.5999V20.3039Z" fill="white" stroke="#FF6C37" stroke-width="2"/>
</svg>
